<?xml version="1.0" encoding="utf-8"?>
<!-- Generator: Adobe Illustrator 18.1.1, SVG Export Plug-In . SVG Version: 6.00 Build 0)  -->
<svg version="1.1" id="Layer_1" xmlns="http://www.w3.org/2000/svg" xmlns:xlink="http://www.w3.org/1999/xlink" x="0px" y="0px"
	 viewBox="-3 50 148 148" enable-background="new -3 50 148 148" xml:space="preserve">
<path fill="#CEA052" d="M71,192.6c-37.7,0-68.6-30.9-68.6-68.6S33.3,55.4,71,55.4s68.6,30.9,68.6,68.6S108.7,192.6,71,192.6
	 M71,60.2C36,60.2,7.2,89,7.2,124S36,187.8,71,187.8s63.8-28.8,63.8-63.8S106.7,60.2,71,60.2"/>
<path fill="#CEA052" d="M63.5,126.7h-8.2v-11h8.2v-8.9c0-7.5,4.8-14.4,16.5-14.4c4.8,0,8.2,0.7,8.2,0.7l-0.7,10.3h-6.9
	c-4.1,0-4.8,2.1-4.8,5.5v8.2h12.3l-2.1,10.3h-11v29.5H63.5V126.7z"/>
</svg>
