<?xml version="1.0" encoding="utf-8"?>
<!-- Generator: Adobe Illustrator 18.1.1, SVG Export Plug-In . SVG Version: 6.00 Build 0)  -->
<svg version="1.1" id="Layer_1" xmlns="http://www.w3.org/2000/svg" xmlns:xlink="http://www.w3.org/1999/xlink" x="0px" y="0px"
	 viewBox="-2 50 148 148" enable-background="new -2 50 148 148" xml:space="preserve">
<path fill="#CEA052" d="M78.9,124c0-3.4-2.7-6.2-6.2-6.2c-3.4,0-6.2,2.7-6.2,6.2s2.7,6.2,6.2,6.2C75.4,130.2,78.9,128.1,78.9,124"/>
<path fill="#CEA052" d="M72.7,109.6c3.4,0,6.2,1.4,8.9,2.7h12.3h11v-4.8c0-8.9-7.5-16.5-16.5-16.5H55.5c-8.9,0-16.5,7.5-16.5,16.5
	v4.1h24C65.8,110.3,69.3,109.6,72.7,109.6 M85.7,101.4c0-0.7,0.7-2.1,2.1-2.1h5.5c0.7,0,2.1,0.7,2.1,2.1v5.5c0,0.7-0.7,2.1-2.1,2.1
	h-5.5c-0.7,0-2.1-0.7-2.1-2.1V101.4z"/>
<path fill="#CEA052" d="M87.8,124.7c0,8.2-6.9,15.8-15.8,15.8c-8.2,0-15.8-6.9-15.8-15.8c0-2.1,0.7-4.8,1.4-6.2H39.8v21.9
	c0,8.9,7.5,16.5,16.5,16.5h32.2c8.9,0,16.5-7.5,16.5-16.5v-22.6H87.1C87.1,119.9,87.8,122.6,87.8,124.7"/>
<path fill="#CEA052" d="M72,192.6c-37.7,0-68.6-30.9-68.6-68.6S34.3,55.4,72,55.4s68.6,30.9,68.6,68.6S109.7,192.6,72,192.6
	 M72,60.2C37,60.2,8.2,89,8.2,124S37,187.8,72,187.8s63.8-28.8,63.8-63.8S107.7,60.2,72,60.2"/>
</svg>
