<?xml version="1.0" encoding="utf-8"?>
<!-- Generator: Adobe Illustrator 18.1.1, SVG Export Plug-In . SVG Version: 6.00 Build 0)  -->
<svg version="1.1" id="Layer_1" xmlns="http://www.w3.org/2000/svg" xmlns:xlink="http://www.w3.org/1999/xlink" x="0px" y="0px"
	 viewBox="-3 50 148 148" enable-background="new -3 50 148 148" xml:space="preserve">
<path fill="#CEA052" d="M99.1,109.6v2.1c0,19.2-14.4,40.5-40.5,40.5c-8.2,0-15.8-2.1-21.9-6.2c1.4,0,2.1,0,3.4,0
	c6.9,0,13-2.7,17.8-6.9c-6.2,0-11.7-4.1-13.7-10.3c0.7,0,2.1,0,2.7,0c1.4,0,2.7,0,4.1-0.7c-6.9-1.4-11.7-6.9-11.7-14.4l0,0
	c2.1,1.4,4.1,2.1,6.2,2.1c-4.1-2.7-6.2-6.9-6.2-12.3c0-2.7,0.7-4.8,2.1-6.9C48.4,105.5,59.3,111,71,111c0-1.4,0-2.1,0-3.4
	c0-8.2,6.2-14.4,14.4-14.4c4.1,0,8.2,2.1,10.3,4.1c3.4-0.7,6.2-2.1,8.9-3.4c-1.4,3.4-3.4,6.2-6.2,8.2c2.7,0,5.5-1.4,8.2-2.1
	C103.9,105.5,101.9,107.5,99.1,109.6"/>
<path fill="#CEA052" d="M71,192.6c-37.7,0-68.6-30.9-68.6-68.6S33.3,55.4,71,55.4s68.6,30.9,68.6,68.6S108.7,192.6,71,192.6
	 M71,60.2C36,60.2,7.2,89,7.2,124s28.1,64.5,63.8,64.5c35,0,63.8-28.8,63.8-63.8S106,60.2,71,60.2"/>
</svg>
