<?xml version="1.0" encoding="utf-8"?>
<!-- Generator: Adobe Illustrator 19.1.0, SVG Export Plug-In . SVG Version: 6.00 Build 0)  -->
<!DOCTYPE svg PUBLIC "-//W3C//DTD SVG 1.1//EN" "http://www.w3.org/Graphics/SVG/1.1/DTD/svg11.dtd">
<svg version="1.1" id="beer-and-gin" xmlns="http://www.w3.org/2000/svg" xmlns:xlink="http://www.w3.org/1999/xlink" x="0px" y="0px"
	 viewBox="-621 473 337 136" style="enable-background:new -621 473 337 136;" xml:space="preserve">
<style type="text/css">
  #beer-and-gin * {
  	stroke:#CEA052;
    fill-opacity: 0;
    stroke-opacity: 1;
    fill:#CEA052;
    transition: fill-opacity 1s, stroke-opacity 1s;
  }

  #beer-and-gin.finished * {
    fill-opacity: 1;
    stroke-opacity: 0;
  }

</style>
<g>
	<path class="st0" d="M-557,542.9c0-0.2-0.1-0.3-0.3-0.3h-2.3c-0.3,0-0.5-0.2-0.5-0.5v-1.4c0-0.3,0.2-0.5,0.5-0.5h4.5
		c0.3,0,0.5,0.2,0.5,0.5v4.3c0,2.9-2.4,5.3-5.7,5.3c-3.1,0-5.3-2-5.7-5.3c-0.3-2.1-0.3-5.6,0-7.6c0.3-2.8,2.4-5.3,5.7-5.3
		c3.1,0,5.7,2,5.7,5.3v0.4c0,0.3-0.2,0.5-0.5,0.5h-1.4c-0.3,0-0.5-0.2-0.5-0.5v-0.4c0-1.5-1.3-2.8-3.3-2.9c-1.7,0-3.1,1-3.3,2.9
		c-0.3,2.1-0.3,5.5,0,7.6c0.2,1.5,1.3,2.9,3.3,2.9c1.7,0,3.3-0.9,3.3-2.9V542.9z"/>
	<path class="st0" d="M-546.2,549.6c0,0.3-0.2,0.5-0.5,0.5h-1.4c-0.3,0-0.5-0.2-0.5-0.5v-16.7c0-0.3,0.2-0.5,0.5-0.5h1.4
		c0.3,0,0.5,0.2,0.5,0.5V549.6z"/>
	<path class="st0" d="M-531.7,550.1c-0.3,0-0.4-0.1-0.5-0.4l-5-12.6c-0.1-0.1-0.2-0.1-0.2,0.1v12.4c0,0.3-0.2,0.5-0.5,0.5h-1.3
		c-0.3,0-0.5-0.2-0.5-0.5v-16.7c0-0.3,0.2-0.5,0.5-0.5h2.1c0.3,0,0.4,0.1,0.5,0.4l5,12.5c0.1,0.1,0.2,0.1,0.2-0.1v-12.4
		c0-0.3,0.2-0.5,0.5-0.5h1.3c0.3,0,0.5,0.2,0.5,0.5v16.7c0,0.3-0.2,0.5-0.5,0.5H-531.7z"/>
	<path class="st0" d="M-512.1,540.1c-0.7-1-1.2-1.9-1.2-3.1c0-2.7,1.8-4.6,4.8-4.6c2.7,0,4.5,1.9,4.5,4.6v0.4c0,0.3-0.2,0.5-0.5,0.5
		h-1.3c-0.3,0-0.5-0.2-0.5-0.5V537c0-1.5-0.8-2.5-2.2-2.5c-1.7,0-2.5,1-2.5,2.5c0,1.2,1.8,3.1,2.3,3.8l3.4,4.1
		c0.1,0.1,0.2,0.1,0.2,0c0,0,0.1-0.6,0.1-2.4c0-0.3,0.2-0.5,0.5-0.5h1.1c0.3,0,0.5,0.2,0.5,0.5c0,2.8-0.3,3.5-0.4,4
		c0,0.1-0.1,0.3,0.1,0.4l2,2.2c0.3,0.3,0.1,0.9-0.5,0.9h-1.2c-0.4,0-0.5-0.2-0.6-0.3l-0.9-1c-0.2-0.2-0.3-0.1-0.4,0
		c-1,0.9-2.3,1.5-3.8,1.5c-3.2,0-5.5-2.4-5.5-5.4c0-1.5,1-3.1,2.1-4.2C-511.9,540.6-512,540.3-512.1,540.1z M-506.5,547.2
		c0.1-0.1,0.2-0.1,0.1-0.3l-3.9-4.8c-0.1-0.1-0.2,0-0.2,0c-0.7,0.7-1.3,1.6-1.3,2.7c0,1.6,1.3,3.1,3.2,3.1
		C-507.8,548-507,547.7-506.5,547.2z"/>
	<path class="st0" d="M-476.3,537.1c0,1.2-0.5,2.6-1.4,3.4c-0.2,0.2-0.2,0.4,0,0.6c1,0.8,1.8,2.4,1.8,3.9c0,2.9-2.4,5.2-5.3,5.2
		h-4.7c-0.3,0-0.5-0.2-0.5-0.5v-16.7c0-0.3,0.2-0.5,0.5-0.5h4.7C-478.6,532.4-476.3,534.3-476.3,537.1z M-481.3,539.7
		c1.7,0,2.6-1.1,2.6-2.6c0-1.5-1.2-2.3-2.6-2.3h-2.6c-0.2,0-0.3,0.1-0.3,0.3v4.4c0,0.2,0.1,0.3,0.3,0.3H-481.3z M-483.9,541.9
		c-0.1-0.1-0.3,0.1-0.3,0.3v5.2c0,0.2,0.1,0.3,0.3,0.3h2.6c1.6,0,2.9-1.2,2.9-2.8c0-1.8-1.3-3-2.9-3H-483.9z"/>
	<path class="st0" d="M-468,547.4c0,0.2,0.1,0.3,0.3,0.3h6.1c0.3,0,0.5,0.2,0.5,0.5v1.4c0,0.3-0.2,0.5-0.5,0.5h-8.3
		c-0.3,0-0.5-0.2-0.5-0.5v-16.7c0-0.3,0.2-0.5,0.5-0.5h8.2c0.3,0,0.5,0.2,0.5,0.5v1.4c0,0.3-0.2,0.5-0.5,0.5h-6.1
		c-0.2,0-0.3,0.1-0.3,0.3v4.6c0,0.2,0.1,0.3,0.3,0.3h5.8c0.3,0,0.5,0.2,0.5,0.5v1.4c0,0.3-0.2,0.5-0.5,0.5h-5.8
		c-0.2,0-0.3,0.1-0.3,0.3V547.4z"/>
	<path class="st0" d="M-453.1,547.4c0,0.2,0.1,0.3,0.3,0.3h6.1c0.3,0,0.5,0.2,0.5,0.5v1.4c0,0.3-0.2,0.5-0.5,0.5h-8.3
		c-0.3,0-0.5-0.2-0.5-0.5v-16.7c0-0.3,0.2-0.5,0.5-0.5h8.2c0.3,0,0.5,0.2,0.5,0.5v1.4c0,0.3-0.2,0.5-0.5,0.5h-6
		c-0.2,0-0.3,0.1-0.3,0.3v4.6c0,0.2,0.1,0.3,0.3,0.3h5.8c0.3,0,0.5,0.2,0.5,0.5v1.4c0,0.3-0.2,0.5-0.5,0.5h-5.8
		c-0.2,0-0.3,0.1-0.3,0.3V547.4z"/>
	<path class="st0" d="M-438,543c-0.2,0-0.3,0.1-0.3,0.3v6.3c0,0.3-0.2,0.5-0.5,0.5h-1.4c-0.3,0-0.5-0.2-0.5-0.5v-16.7
		c0-0.3,0.2-0.5,0.5-0.5h4.6c2.9,0,5.3,2.4,5.3,5.3c0,1.9-1.1,3.6-2.6,4.5c-0.5,0.3-0.7,0.5-0.4,1l3,6.2c0.2,0.4,0,0.8-0.5,0.8h-1.4
		c-0.4,0-0.6-0.2-0.7-0.5l-3-6.3c-0.1-0.2-0.2-0.3-0.5-0.3H-438z M-438,534.8c-0.2,0-0.3,0.1-0.3,0.3v5.3c0,0.2,0.1,0.3,0.3,0.3h2.4
		c1.6,0,2.9-1.3,2.9-2.9s-1.3-2.9-2.9-2.9H-438z"/>
	<path class="st0" d="M-406.5,532.4h1.4c0.3,0,0.5,0.2,0.5,0.5v16.7c0,0.3-0.2,0.5-0.5,0.5h-1.4c-0.3,0-0.5-0.2-0.5-0.5v-7.1
		c0-0.2-0.1-0.3-0.3-0.3h-5.6c-0.2,0-0.3,0.1-0.3,0.3v7.1c0,0.3-0.2,0.5-0.5,0.5h-1.4c-0.3,0-0.5-0.2-0.5-0.5v-16.7
		c0-0.3,0.2-0.5,0.5-0.5h1.4c0.3,0,0.5,0.2,0.5,0.5v6.7c0,0.2,0.1,0.3,0.3,0.3h5.6c0.2,0,0.3-0.1,0.3-0.3v-6.7
		C-407,532.6-406.8,532.4-406.5,532.4z"/>
	<path class="st0" d="M-387,537.4c0.3,2,0.2,5.6,0,7.6c-0.3,2.8-2.4,5.3-5.7,5.3c-3.1,0-5.3-2-5.7-5.3c-0.3-2.1-0.3-5.6,0-7.6
		c0.3-2.8,2.4-5.3,5.7-5.3C-389.7,532.2-387.4,534.2-387,537.4z M-389.4,545c0.3-2.1,0.3-5.5,0-7.6c-0.2-1.5-1.3-2.9-3.3-2.9
		c-1.7,0-3.1,1-3.3,2.9c-0.3,2.1-0.3,5.5,0,7.6c0.2,1.5,1.3,2.9,3.3,2.9C-391,547.9-389.7,546.9-389.4,545z"/>
	<path class="st0" d="M-369.6,545c0,3-2.6,5.3-5.7,5.3c-3.3,0-5.7-2.2-5.7-5.3v-12.2c0-0.3,0.2-0.5,0.5-0.5h1.4
		c0.3,0,0.5,0.2,0.5,0.5V545c0,2,1.7,2.9,3.3,2.9c1.9,0,3.3-1.2,3.3-2.9v-12.2c0-0.3,0.2-0.5,0.5-0.5h1.4c0.3,0,0.5,0.2,0.5,0.5V545
		z"/>
	<path class="st0" d="M-359.6,541.8c-2.5-0.6-4.2-2.1-4.2-4.8c0-3,2.6-4.8,5.2-4.8c3,0,5.2,2.2,5.2,4.8v0.3c0,0.3-0.2,0.5-0.5,0.5
		h-1.4c-0.3,0-0.5-0.2-0.5-0.5v-0.3c0-1.7-1.5-2.4-2.8-2.4c-1.7,0-2.8,0.9-2.8,2.4c0,2.2,2.2,2.5,3.8,2.9c2.9,0.7,4.7,2.3,4.7,5.2
		c0,3.2-2.8,5.3-5.7,5.3c-3.3,0-5.7-2.4-5.7-5.3v-0.4c0-0.3,0.2-0.5,0.5-0.5h1.4c0.3,0,0.5,0.2,0.5,0.5v0.4c0,1.6,1.4,2.9,3.3,2.9
		s3.3-1.2,3.3-2.9C-355.3,542.7-357,542.4-359.6,541.8z"/>
	<path class="st0" d="M-344.9,547.4c0,0.2,0.1,0.3,0.3,0.3h6.1c0.3,0,0.5,0.2,0.5,0.5v1.4c0,0.3-0.2,0.5-0.5,0.5h-8.3
		c-0.3,0-0.5-0.2-0.5-0.5v-16.7c0-0.3,0.2-0.5,0.5-0.5h8.2c0.3,0,0.5,0.2,0.5,0.5v1.4c0,0.3-0.2,0.5-0.5,0.5h-6.1
		c-0.2,0-0.3,0.1-0.3,0.3v4.6c0,0.2,0.1,0.3,0.3,0.3h5.8c0.3,0,0.5,0.2,0.5,0.5v1.4c0,0.3-0.2,0.5-0.5,0.5h-5.8
		c-0.2,0-0.3,0.1-0.3,0.3V547.4z"/>
</g>
</svg>
