<svg version="1.1" id="plau-logo-svg" xmlns="http://www.w3.org/2000/svg" xmlns:xlink="http://www.w3.org/1999/xlink" x="0px" y="0px"
viewBox="0 0 550.1 214.6" style="enable-background:new 0 0 550.1 214.6;" xml:space="preserve">
<style type="text/css">
  #plau-logo-svg * {
    stroke:#CEA052;
    fill-opacity: 0;
    stroke-opacity: 1;
    fill:#CEA052;
    transition: fill-opacity 1s, stroke-opacity 1s;
  }

  #plau-logo-svg.finished * {
    fill-opacity: 1;
    stroke-opacity: 0;
  }

</style>
<path stroke="#CEA052" fill="none" strokeWidth="1" class="st0" d="M76.3,57.5L66 57.5 66 55.2 96.4 55.2 96.4 157.5 106.7 157.5 106.7 159.8 66 159.8 66 157.5 76.3 157.5 z"></path>
<path stroke="#CEA052" fill="none" strokeWidth="1" class="st0" d="M112.8,55.1c-2.1,0-4.1,0.2-6,0.6c11.2,5.8,18.9,17.5,18.9,31.1c0,13.2-7.3,24.7-18.2,30.7
  c1.7,0.3,3.5,0.4,5.3,0.4c17.3,0,31.4-14.1,31.4-31.4C144.2,69.2,130.1,55.1,112.8,55.1" />
<path stroke="#CEA052" fill="none" strokeWidth="1" class="st0" d="M358.7,157.5L317.1 54.6 307.5 78.9 307.5 78.9 308.7 81.9 338.7 157.5 328.1 157.5 328.1 159.8 368.9 159.8 368.9 157.5 z"></path>
<path stroke="#CEA052" fill="none" strokeWidth="1" class="st0" d="M234,133.8c-1.5,13.3-12.8,23.7-26.5,23.7v2.3h28.8v-27.1H234V133.8z"/>
<path stroke="#CEA052" fill="none" strokeWidth="1" class="st0" d="M207.5,57.5v-2.4h-40.8v2.4h25.9c-8.9,2.1-15.6,10.1-15.6,19.6h0v80.4h-10.3v2.2l10.3,0
  c11.1,0,20.1-9,20.1-20.1l0-82.1H207.5z"/>
<path stroke="#CEA052" fill="none" strokeWidth="1" class="st0" d="M410.4,136.8v-0.4h0v-0.3l0-78.6h10.3v-2.4H380v2.4h10.3v52.1l0,5c0,26.5,12.3,42.1,34.9,44.7
  C415.6,156.9,410.4,149.2,410.4,136.8"/>
<path stroke="#CEA052" fill="none" strokeWidth="1" class="st0" d="M443.2,55.1v2.4h25.9c-8.9,2.1-15.6,10.1-15.6,19.6h0v59v0.3v0.4c0,12.4-5.2,20.2-14.8,22.5
  c22.6-2.5,34.9-18.1,34.9-44.7l0-5l0-52.1H484v-2.4H443.2z"/>
<path stroke="#CEA052" fill="none" strokeWidth="1" class="st0" d="M311.1,116.5v2.4c-1,0.3-1.9,0.9-1.9,0.9c-1.5,0.9-2.8,2.6-3.4,4.3c-0.7,2-2.2,6.7-2.8,8.7
  c-3.2,10.1-3.6,19-14.7,23.8c-4.5,1.9-10.5,3.2-15.3,3.2l-6.8,0v-2.2c0.4,0,0.8-0.1,0.9-0.1c3.9-0.3,7.2-2.7,9.5-5.7
  c1.3-1.8,2.3-3.8,3.2-5.8c3.6-7.5,5.8-15.9,11.5-22.3c1.6-1.8,3.3-3.4,5.3-4.7c2-1.3,4.4-2.3,6.7-2.4c1.3,0,2.6,0,3.9,0
  C308.5,116.5,309.8,116.5,311.1,116.5"/>
</svg>